<svg width="887" height="687" viewBox="0 0 887 687" fill="none" xmlns="http://www.w3.org/2000/svg">
<path fill-rule="evenodd" clip-rule="evenodd" d="M123.496 483.368C162.973 501.588 208.826 510.698 261.057 510.698C315.11 510.698 363.393 499.462 405.906 476.991C449.027 454.519 482.43 423.242 506.116 383.158L379.487 306.634C366.733 329.105 351.55 345.503 333.937 355.828C316.324 366.152 295.979 371.315 272.9 371.315C241.926 371.315 217.936 362.812 200.931 345.807C184.533 328.194 176.334 304.812 176.334 275.66C176.334 235.576 187.57 202.78 210.041 177.272C233.12 151.764 262.272 139.01 297.497 139.01C343.047 139.01 374.932 160.874 393.152 204.602L540.734 134.455C521.907 91.9412 492.147 59.1452 451.456 36.0666C410.765 12.3806 362.482 0.537598 306.607 0.537598C248.303 0.537598 195.769 12.9879 149.004 37.8885C102.239 62.7892 65.7993 96.7999 39.684 139.921C13.5687 183.041 0.510986 231.628 0.510986 285.681C0.510986 330.623 11.1393 370.1 32.396 404.111C54.26 438.121 84.6267 464.54 123.496 483.368ZM763.487 203.99C724.01 185.77 678.156 176.66 625.926 176.66C571.873 176.66 523.59 187.896 481.077 210.367C437.956 232.839 404.552 264.116 380.866 304.2L507.495 380.724C520.25 358.253 535.433 341.855 553.045 331.53C570.658 321.206 591.004 316.043 614.083 316.043C645.057 316.043 669.046 324.546 686.052 341.551C702.45 359.164 710.648 382.546 710.648 411.698C710.648 451.782 699.413 484.578 676.942 510.086C653.863 535.594 624.711 548.348 589.485 548.348C543.935 548.348 512.051 526.484 493.831 482.756L346.248 552.903C365.076 595.417 394.835 628.213 435.526 651.291C476.218 674.977 524.501 686.82 580.375 686.82C638.68 686.82 691.214 674.37 737.979 649.469C784.743 624.569 821.183 590.558 847.299 547.437C873.414 504.317 886.471 455.73 886.471 401.677C886.471 356.735 875.843 317.258 854.586 283.247C832.723 249.237 802.356 222.818 763.487 203.99Z" fill="#EDBF1D"/>
</svg>
